<svg version="1.1" id="Layer_1" xmlns="http://www.w3.org/2000/svg" xmlns:xlink="http://www.w3.org/1999/xlink" x="0px" y="0px"
	 width="100%" viewBox="0 0 1024 1024" enable-background="new 0 0 1024 1024" xml:space="preserve">
<path fill="#000000" opacity="1.000000" stroke="none" 
	d="
M289.104279,713.137329 
	C289.805267,709.496155 290.026642,706.219604 292.419312,703.477539 
	C293.725037,701.981201 293.920013,699.729004 292.700836,697.825500 
	C291.338135,695.697815 289.175110,696.082031 287.285950,696.633179 
	C281.717773,698.257629 276.020294,699.505615 270.940155,702.565552 
	C264.948456,706.174683 259.143250,703.472229 258.101624,696.462891 
	C257.515564,692.518982 255.529739,691.267090 252.358887,693.157654 
	C244.479675,697.855591 235.213272,699.834717 228.533554,707.121582 
	C224.876831,711.110718 220.093369,715.579163 215.061676,717.065247 
	C207.900391,719.180237 203.454758,726.120178 195.571106,726.428040 
	C189.977188,726.646423 189.272324,726.181885 188.767044,720.751892 
	C187.927658,711.731689 191.689377,705.167297 198.588486,699.758728 
	C208.438080,692.037048 219.454620,686.102661 229.713867,679.015991 
	C231.092957,678.063416 232.377487,677.234619 233.327347,675.732971 
	C235.104950,672.922668 237.046234,670.138062 241.110077,670.528137 
	C241.798752,670.594177 242.875092,670.125549 243.236786,669.560913 
	C247.716644,662.566772 255.550858,660.006165 262.049316,655.930542 
	C267.471344,652.530029 271.767273,647.429077 278.118103,645.374695 
	C280.311157,644.665344 281.380280,642.302002 280.472717,639.971436 
	C279.507446,637.492493 277.211945,638.132874 275.271515,638.568115 
	C271.747772,639.358459 269.268951,642.046448 266.233612,643.733154 
	C264.784332,644.538635 263.461578,645.879578 261.927521,646.173035 
	C253.791687,647.729492 246.619049,651.337952 239.441086,655.329529 
	C235.611679,657.458984 230.888809,656.552979 226.984818,654.160461 
	C223.754868,652.180969 223.244415,648.976013 224.791946,645.825867 
	C228.506577,638.264526 233.228485,632.144958 241.956924,629.026001 
	C247.741745,626.958862 253.615814,624.190552 258.953918,620.814392 
	C262.251984,618.728516 263.803375,615.353210 263.597687,611.457764 
	C263.394684,607.612488 260.269592,606.151672 257.253387,605.215576 
	C250.096466,602.994446 242.730682,604.077393 235.508972,604.789978 
	C228.062012,605.524719 220.812439,608.555176 213.553726,609.160278 
	C205.208328,609.855957 197.217133,611.559509 189.127350,613.205017 
	C186.207321,613.798889 183.303802,614.124695 180.993729,616.519287 
	C179.011871,618.573730 176.206177,617.075378 173.784119,617.305908 
	C167.351608,617.918274 162.123230,614.702393 157.226883,611.280212 
	C153.301682,608.536804 153.235474,604.199463 154.644852,599.941345 
	C156.283569,594.990295 159.206039,589.799927 164.117905,589.075745 
	C175.854782,587.345215 185.639069,579.734985 197.563782,578.940369 
	C200.329330,578.756042 203.080399,577.723145 205.741730,576.802246 
	C207.946747,576.039185 209.863098,575.318787 212.418259,575.984131 
	C215.542404,576.797668 222.951523,571.116699 223.618805,568.009521 
	C224.018997,566.146118 223.261536,564.652832 221.718124,563.741272 
	C218.582596,561.889465 215.470993,559.751648 211.491333,560.830139 
	C209.764847,561.298035 208.103851,560.802856 206.614105,560.186890 
	C203.010803,558.696838 199.708801,557.299927 195.913925,560.167969 
	C194.339157,561.358154 192.050095,560.072937 190.409851,558.790649 
	C188.431839,557.244324 185.950424,556.421387 183.830978,557.318848 
	C177.804947,559.870789 172.132385,557.987549 166.337494,556.728821 
	C159.567368,555.258179 152.728439,556.240417 145.933853,556.461487 
	C143.256577,556.548645 140.644058,556.593750 137.993118,556.240051 
	C135.224106,555.870667 132.384262,555.424622 132.214401,551.965698 
	C132.053101,548.680664 133.862869,546.164856 136.890732,544.961548 
	C139.350128,543.984192 141.992538,543.415710 144.595779,542.864075 
	C148.364380,542.065552 150.574188,539.800049 150.742752,536.034912 
	C150.903687,532.440247 152.777298,531.033203 156.028732,530.695984 
	C162.485397,530.026245 168.947113,529.595215 175.446609,529.823364 
	C178.139008,529.917847 180.358292,530.549255 181.355377,533.411499 
	C181.686264,534.361328 182.370453,535.104370 183.426941,535.418030 
	C194.513733,538.709656 207.592041,528.347595 206.534668,517.057739 
	C206.389893,515.511902 206.129944,513.782898 207.309280,512.796082 
	C211.823563,509.018738 215.127426,503.442047 221.677734,502.584625 
	C229.228439,501.596191 235.265182,496.234711 242.870636,495.362854 
	C244.393143,495.188324 245.648895,494.008301 245.455856,492.192596 
	C245.259171,490.342590 243.974121,488.922791 242.311844,488.686829 
	C227.991226,486.654022 215.286255,479.590515 201.599106,475.531372 
	C192.937424,472.962616 183.535767,471.208435 176.411148,464.215820 
	C171.162155,459.064087 171.600281,453.115936 178.579208,449.995209 
	C183.717209,447.697693 189.285583,447.434265 194.740173,447.171021 
	C205.035126,446.674164 215.345566,447.344910 225.651215,445.909027 
	C233.290176,444.844696 240.702118,448.309143 248.382614,448.373840 
	C251.539444,448.400421 254.692978,448.852478 257.849457,448.871338 
	C261.214203,448.891449 262.119385,447.284515 261.097321,443.981903 
	C259.712982,439.508728 255.567642,437.433319 253.036896,433.968048 
	C251.104767,431.322479 248.654800,428.842255 250.787247,425.551849 
	C252.840134,422.384186 256.488586,422.564209 259.853760,422.716370 
	C260.495453,422.745392 261.117371,423.118011 261.756958,423.302551 
	C268.665466,425.295868 269.745544,424.541962 270.028778,417.540009 
	C270.055695,416.874176 269.847168,416.074341 270.140991,415.562195 
	C276.252655,404.908905 266.817932,400.655670 261.164032,395.901306 
	C253.828323,389.732697 245.041656,385.463745 236.115845,381.654602 
	C232.191406,379.979797 228.549271,377.407257 225.166214,374.749390 
	C218.204468,369.279938 210.476898,364.816132 204.489777,358.034943 
	C200.280136,353.266998 194.377274,350.438995 188.800858,347.556824 
	C183.161102,344.641937 179.845093,339.665039 176.078079,335.092163 
	C174.068420,332.652588 175.648544,330.216553 178.890335,330.086792 
	C179.706177,330.054138 180.642334,330.080719 181.338257,330.439178 
	C192.566238,336.222076 205.387451,337.081970 216.883148,341.895386 
	C225.920441,345.679382 234.427444,350.779236 243.563034,354.264252 
	C251.630951,357.341980 259.441010,361.014404 267.541687,363.982788 
	C269.604767,364.738831 271.122589,364.254913 272.228943,362.421387 
	C276.099182,356.007568 280.154388,349.699921 278.458221,341.549438 
	C277.923645,338.980774 277.858917,336.217316 278.130157,333.600098 
	C278.568787,329.367371 281.989563,327.105469 286.930817,327.394165 
	C290.910065,327.626617 290.919464,330.744690 291.280609,333.551117 
	C292.541565,343.349304 291.841095,353.188599 291.860687,363.012238 
	C291.882965,374.157867 291.933228,385.303925 291.859772,396.449066 
	C291.785095,407.775482 291.690063,419.104004 291.392517,430.426056 
	C291.068573,442.751678 292.317841,455.055725 291.640900,467.394470 
	C291.447906,470.911865 290.418671,473.224060 287.562805,475.273804 
	C264.016998,492.173798 240.572571,509.214996 217.053391,526.152344 
	C211.925430,529.845215 211.782257,530.297974 216.227356,534.698975 
	C236.823563,555.091003 257.551056,575.352356 277.988098,595.902588 
	C299.954041,617.990295 321.609314,640.386658 343.513214,662.536621 
	C346.155273,665.208313 346.195679,667.002625 343.430084,669.432129 
	C340.363556,672.125916 337.569702,675.130005 334.637512,678.018311 
	C332.008484,675.628357 333.017609,673.405396 333.382721,671.422607 
	C334.220398,666.873596 333.416656,663.006531 330.236938,659.411377 
	C326.601288,655.300598 323.459717,650.756409 319.999359,646.484863 
	C318.902954,645.131470 318.138977,643.263855 315.976288,642.989014 
	C313.991364,644.492493 314.109802,646.880066 313.750702,648.877625 
	C308.305847,679.166016 303.000366,709.479431 297.592957,739.774597 
	C297.030029,742.928528 298.266235,743.995239 301.232025,744.138550 
	C310.720642,744.597351 320.198181,744.321899 329.690521,744.237915 
	C369.018097,743.889954 408.349213,743.948425 447.679016,743.837158 
	C450.106506,743.830322 452.170227,744.161987 453.763611,746.407654 
	C468.704102,767.463562 484.121521,788.184082 498.238892,809.817322 
	C498.590729,810.356506 498.828033,810.970459 499.627472,812.562744 
	C496.609680,810.381409 494.559601,808.629517 492.264862,807.300049 
	C488.175690,804.931091 485.277191,806.129700 483.564911,810.386536 
	C478.771423,822.303772 474.688995,834.473938 474.638306,847.418884 
	C474.615021,853.358704 474.156006,858.903015 471.903809,864.419067 
	C470.389984,868.126770 468.058533,871.028992 465.073242,873.474304 
	C458.755341,878.649719 452.067719,875.912170 450.026642,868.044434 
	C447.365967,857.788574 450.223663,847.937561 451.030060,837.900452 
	C452.040405,825.324646 455.123657,813.018005 455.611206,800.386353 
	C455.727814,797.365051 455.703491,794.502380 454.234161,791.657471 
	C452.090393,787.506653 453.175964,782.803467 452.522217,778.386108 
	C451.913025,774.269958 452.896118,768.775024 447.625031,767.412720 
	C442.726105,766.146545 440.711578,771.368347 438.237762,774.303955 
	C435.735901,777.272827 434.310394,781.221436 432.733551,784.878906 
	C430.692322,789.613464 426.858521,792.528198 422.708282,794.974792 
	C419.233398,797.023193 415.450562,797.422791 412.026611,794.419128 
	C408.622437,791.432861 408.492523,787.946777 410.134766,783.994019 
	C412.455353,778.408447 413.260193,772.452454 413.800446,766.492920 
	C413.962311,764.706909 414.702545,762.148315 411.984558,761.413635 
	C409.663605,760.786255 407.868317,762.041809 406.348877,763.811768 
	C402.763885,767.987732 399.379608,772.300903 396.754364,777.158630 
	C395.323730,779.805786 393.752258,782.231750 391.269836,784.146240 
	C388.974548,785.916321 387.376068,788.972534 387.602478,791.529785 
	C388.073761,796.853149 384.979401,800.168518 382.535675,804.103333 
	C376.063049,814.525452 369.639130,824.992249 363.689728,835.715332 
	C362.079041,838.618408 362.083588,842.476807 361.609161,845.932800 
	C361.214264,848.809509 359.780640,850.430481 356.995911,851.057861 
	C351.549133,852.284790 346.404144,855.236938 340.454895,853.338196 
	C335.037994,851.609375 332.635071,848.962952 333.861237,843.445679 
	C335.661957,835.343079 337.231293,827.025757 342.803650,820.283630 
	C343.821442,819.052368 344.290100,817.326660 344.860168,815.773376 
	C346.630280,810.950745 348.074829,806.059143 350.917725,801.620422 
	C354.261230,796.399902 354.098541,789.822388 356.795441,784.250671 
	C357.944855,781.875916 358.472839,779.559143 361.526306,778.372620 
	C365.111328,776.979614 363.882111,772.514465 365.530396,769.728821 
	C367.705597,766.052612 366.472107,763.942139 362.523560,762.718689 
	C361.448364,762.385620 360.732849,760.891663 359.586395,759.640259 
	C348.991211,765.387268 343.678833,777.376465 332.301056,782.674255 
	C330.624115,777.765015 326.356628,774.897217 325.199341,769.993713 
	C324.673126,767.764099 322.959808,765.609863 320.484161,765.214539 
	C313.802338,764.147583 307.035309,762.875122 300.506165,765.993347 
	C293.370880,769.401184 285.882965,766.642090 282.718414,759.306885 
	C281.527405,756.546387 279.798096,753.377869 280.586243,750.692810 
	C283.197083,741.798157 282.116730,732.215271 286.078766,723.587769 
	C287.519226,720.451050 288.054688,716.898743 289.104279,713.137329 
z"/>
<path fill="#000000" opacity="1.000000" stroke="none" 
	d="
M780.403809,388.086426 
	C775.331055,394.961365 768.073547,398.739594 762.157532,404.037842 
	C755.201111,410.267883 746.105896,413.245117 739.528748,419.884125 
	C737.130371,422.305176 734.472717,424.860992 736.199219,428.543671 
	C738.033081,432.455261 740.346680,436.276062 745.344360,436.910950 
	C747.843628,437.228455 750.312012,437.120819 752.776062,436.478912 
	C762.349854,433.984894 772.236145,437.605774 777.401672,445.677490 
	C781.261353,451.708588 786.686829,455.491089 793.287964,457.967163 
	C799.631470,460.346588 800.221313,462.598907 796.993958,468.548981 
	C795.175659,471.901215 793.780151,475.487030 792.263062,478.997406 
	C790.052490,484.112305 790.843384,488.773529 794.613403,492.873962 
	C797.148315,495.630951 798.581238,498.321655 796.596252,502.269226 
	C794.911621,505.619537 797.154175,508.321075 799.574524,510.560822 
	C803.758118,514.432190 808.456116,517.544373 813.602478,520.009155 
	C822.067810,524.063538 822.805115,529.433655 816.031128,535.547363 
	C811.362366,539.761047 805.972839,543.257996 802.734985,548.956726 
	C800.173767,553.464600 800.717651,557.294006 803.893799,561.355652 
	C808.810242,567.642822 815.751465,570.242920 822.830261,572.799316 
	C827.988586,574.662170 833.343628,576.096863 837.936401,579.272766 
	C839.288879,580.208008 840.949707,581.113403 840.469788,583.158142 
	C840.032104,585.023071 838.445007,585.703613 836.727234,585.995789 
	C829.304749,587.257935 821.839050,587.348694 814.351013,586.760254 
	C813.038086,586.657166 811.598816,586.195862 810.426636,586.564148 
	C794.637207,591.525024 778.430542,588.075256 762.452454,589.059937 
	C759.747803,589.226624 756.414917,588.163757 755.303223,591.919800 
	C754.138428,595.855103 756.374573,597.976196 759.642273,599.807922 
	C764.964172,602.791138 770.969116,604.873962 774.591492,610.329712 
	C776.874207,613.767761 778.817444,617.265686 776.609253,621.436523 
	C774.223328,625.942932 770.157715,626.771667 765.510681,626.241943 
	C761.333801,625.765747 757.392029,624.489014 753.493530,622.995422 
	C747.622437,620.745972 743.454285,623.432983 744.300171,629.596558 
	C745.123108,635.592590 746.346924,641.684753 750.586914,646.599976 
	C751.732971,647.928589 752.746948,649.774475 752.918213,651.473999 
	C753.890869,661.125122 760.970093,666.819641 766.792236,673.288696 
	C769.478882,676.274048 772.239380,679.131897 773.933289,682.835022 
	C776.937866,689.403442 776.717224,695.990784 773.377991,698.777710 
	C770.231018,701.404297 760.452881,700.504761 755.824280,697.118896 
	C754.752258,696.334839 753.837769,695.336182 752.770142,694.545166 
	C749.681213,692.256104 746.209045,691.311218 743.188660,694.115784 
	C740.164490,696.923889 740.084473,700.959900 742.089722,704.242554 
	C746.232666,711.024719 747.687378,717.921509 745.429810,725.665710 
	C744.204712,729.868164 745.027710,734.289001 745.037231,738.610352 
	C745.044739,742.037109 743.594482,743.078674 740.330627,742.083923 
	C737.962769,741.362305 735.650330,740.495178 733.079651,740.360596 
	C730.453369,740.223083 729.561584,737.913269 729.293762,735.732178 
	C728.909729,732.603760 728.801636,729.426025 728.794983,726.268921 
	C728.713196,687.281311 728.663269,648.293701 728.627258,609.306030 
	C728.621399,602.989380 727.797424,596.709412 728.464172,590.341919 
	C728.829712,586.850525 729.940125,584.579895 732.809631,582.560974 
	C756.371826,565.983582 779.840576,549.273254 803.338074,532.603821 
	C803.609802,532.411011 803.890442,532.230835 804.162292,532.038147 
	C810.838806,527.307007 810.759583,527.383911 805.105103,521.573853 
	C773.519836,489.119415 741.006653,457.582520 709.665833,424.883636 
	C700.338135,415.151764 690.347778,406.056305 680.703552,396.625854 
	C676.024048,392.050110 676.111877,391.740173 680.663330,387.195648 
	C683.209351,384.653442 685.581421,381.937012 688.614014,378.672546 
	C690.835388,386.178375 686.510132,393.573792 692.432495,399.498108 
	C697.310974,404.378174 701.289673,410.157715 705.800110,415.702179 
	C709.211548,412.991150 708.971619,409.385620 709.521301,406.307098 
	C714.782166,376.841309 719.911743,347.351807 724.974609,317.851257 
	C725.667725,313.812683 727.537964,311.249481 731.488708,309.919098 
	C734.949768,308.753571 738.182251,306.913116 741.637756,305.726135 
	C746.350708,304.107147 750.425720,305.681183 752.890137,309.679779 
	C754.695129,312.608490 754.272461,319.869354 751.322021,321.804718 
	C745.305359,325.751404 743.006042,332.181458 740.009216,337.917755 
	C732.594238,352.110748 726.766846,366.902863 725.639099,383.229065 
	C725.126038,390.657654 728.440796,393.862732 735.688171,391.826935 
	C744.840332,389.256165 752.217224,383.324707 760.397766,378.924072 
	C763.976135,376.999146 767.567688,375.385773 771.648926,375.135620 
	C780.249939,374.608398 783.902039,379.773987 780.403809,388.086426 
z"/>
<path fill="#000000" opacity="1.000000" stroke="none" 
	d="
M701.299927,601.000000 
	C701.301331,635.410156 701.301331,669.320312 701.301331,703.256287 
	C697.924072,703.582947 696.814514,701.388062 695.371765,699.980652 
	C660.433716,665.899353 625.541443,631.771240 590.637329,597.655273 
	C588.373657,595.442810 585.705994,593.533691 583.867737,591.015198 
	C576.361023,580.730713 565.584473,578.001099 553.770813,577.319092 
	C550.150757,577.110107 546.607788,576.401367 543.193298,574.870300 
	C544.274109,572.150635 546.507690,572.188232 548.347290,571.894470 
	C567.067383,568.904968 585.803528,566.016052 604.531250,563.074097 
	C606.278809,562.799622 608.540222,563.198425 609.339172,561.134460 
	C610.230774,558.831116 608.107910,557.575928 606.874268,556.084900 
	C605.422119,554.329773 603.451233,552.955261 602.681030,550.773682 
	C603.954224,548.465027 605.963806,549.017700 607.679749,549.010803 
	C637.003784,548.892761 666.328613,548.893188 695.651550,548.649780 
	C700.153076,548.612427 701.360535,550.296509 701.317078,554.514465 
	C701.159119,569.841370 701.281677,585.171265 701.299927,601.000000 
z"/>
<path fill="#000000" opacity="1.000000" stroke="none" 
	d="
M322.329590,510.067047 
	C317.851257,509.453552 318.757965,506.278015 318.752136,503.796997 
	C318.693268,478.819946 318.707703,453.842682 318.708649,428.865479 
	C318.709503,405.886292 318.707703,382.907043 318.745117,359.927917 
	C318.748322,357.969421 318.320129,355.927521 319.389954,354.030914 
	C321.742676,353.161438 322.683685,355.195740 323.863617,356.363251 
	C360.667633,392.779724 397.862610,428.817932 433.930695,465.950562 
	C444.224274,476.548004 455.435608,481.532654 469.390991,482.808441 
	C474.574677,483.282349 474.537476,483.689240 477.501709,485.970795 
	C476.890869,488.353424 474.796600,488.020844 473.105896,488.260040 
	C454.994873,490.822784 436.805725,492.701752 418.598816,494.420410 
	C418.267426,494.451691 417.918427,494.426636 417.607422,494.523468 
	C415.291687,495.244629 412.034119,494.392639 410.847382,496.919373 
	C409.551392,499.678711 412.732239,501.158264 413.954987,503.191254 
	C415.042053,504.998627 417.056427,506.246765 417.414917,510.091888 
	C385.751129,510.091888 354.273132,510.091888 322.329590,510.067047 
M367.815186,459.624298 
	C363.643921,453.469330 357.833557,449.706055 350.605988,448.285645 
	C347.015839,447.580109 345.696655,449.705322 346.326141,452.990479 
	C347.674683,460.028503 358.863312,465.979370 365.348755,463.203583 
	C366.639709,462.651062 367.560638,461.774536 367.815186,459.624298 
z"/>
<path fill="#000000" opacity="1.000000" stroke="none" 
	d="
M723.799622,477.202087 
	C737.883362,491.677795 751.722961,505.897705 765.593506,520.149414 
	C762.916565,522.795776 760.452759,522.100525 758.224365,522.104126 
	C705.248718,522.189575 652.272827,522.302063 599.297668,522.155701 
	C593.272156,522.139038 588.346802,523.641846 583.695496,527.344543 
	C579.144043,530.967834 574.238586,534.152588 569.425659,537.437622 
	C567.990051,538.417419 566.521179,539.670776 564.522949,539.229309 
	C563.591248,536.797363 565.425964,535.607239 566.392883,534.264282 
	C575.927002,521.021973 585.563171,507.853210 595.146362,494.646149 
	C597.003113,492.087280 598.768799,489.461792 600.552307,486.850525 
	C602.388000,484.162903 601.575134,482.651245 598.504578,481.823761 
	C595.836670,481.104858 592.781433,482.141785 590.318726,480.054565 
	C590.226013,477.316101 592.348083,475.928009 593.883240,474.363892 
	C613.833496,454.037231 633.862183,433.787537 653.828552,413.476624 
	C655.965759,411.302521 657.666321,410.853333 660.068420,413.273499 
	C681.182251,434.545929 702.381531,455.733521 723.799622,477.202087 
z"/>
<path fill="#000000" opacity="1.000000" stroke="none" 
	d="
M604.746460,342.583740 
	C631.695801,342.583557 658.177734,342.583557 684.558411,342.583557 
	C684.975952,345.298126 683.402954,346.228699 682.245850,347.346344 
	C645.474609,382.864655 610.364624,420.038635 573.990784,455.952820 
	C573.398254,456.537842 572.867920,457.203552 572.210815,457.702820 
	C562.950806,464.738434 558.043396,473.973999 557.282959,485.655243 
	C557.060791,489.068573 556.812378,492.929504 553.814087,495.934143 
	C550.736572,493.212830 551.433350,489.560913 550.862061,486.524475 
	C547.845337,470.490509 546.887451,454.179779 544.755005,438.021881 
	C544.498291,436.076538 544.992859,433.696228 542.913635,432.641113 
	C540.433716,431.382568 539.077820,433.884796 537.324280,434.962494 
	C535.402466,436.143555 533.977234,438.232056 531.492554,438.396484 
	C529.665344,436.241882 530.064697,433.819519 530.059265,431.546844 
	C529.991943,403.242157 529.555115,374.937225 530.442810,346.632965 
	C530.576172,342.382782 532.815552,342.065979 535.849426,342.098083 
	C549.666260,342.244324 563.482300,342.469238 577.299377,342.582916 
	C586.291992,342.656921 595.285828,342.588501 604.746460,342.583740 
z"/>
<path fill="#000000" opacity="1.000000" stroke="none" 
	d="
M471.999329,717.340088 
	C426.481995,717.340698 381.464569,717.340698 336.447144,717.340698 
	C336.232300,716.797913 336.017456,716.255127 335.802612,715.712280 
	C340.544403,710.752197 345.198029,705.704163 350.042267,700.846252 
	C382.838104,667.958313 415.257935,634.676575 448.772766,602.537231 
	C457.816864,593.864319 460.953217,584.211548 462.821014,572.998718 
	C463.346069,569.846619 463.164886,566.351929 465.513855,563.638794 
	C468.270325,564.407227 468.034576,566.683777 468.323212,568.528442 
	C470.995941,585.608704 473.604431,602.699036 476.248962,619.783752 
	C476.477386,621.259583 476.788055,622.726135 477.133911,624.179565 
	C477.884521,627.334045 479.591553,627.760620 482.260742,626.092712 
	C484.609467,624.625122 486.429138,622.237427 489.394196,621.748962 
	C491.382416,623.432800 491.147797,625.677246 491.149078,627.786316 
	C491.166351,655.929504 491.103638,684.072876 491.202362,712.215698 
	C491.215912,716.078796 489.932007,717.657654 485.984985,717.434082 
	C481.502319,717.180054 476.995544,717.352478 471.999329,717.340088 
z"/>
<path fill="#000000" opacity="1.000000" stroke="none" 
	d="
M505.732239,586.245239 
	C521.323853,597.105469 536.582275,607.817505 551.940796,618.383911 
	C557.395630,622.136780 558.729553,621.449646 560.031128,614.891663 
	C560.447266,612.794861 560.807373,610.687073 561.169800,608.711731 
	C563.218201,607.757263 564.174805,609.105347 565.208252,610.112732 
	C585.719971,630.107788 606.184143,650.151917 626.765015,670.075500 
	C629.737305,672.952820 630.259888,674.841370 626.929932,678.072571 
	C606.490479,697.906189 586.228455,717.923523 565.993286,737.966431 
	C551.688721,752.134949 537.527039,766.447510 523.276855,780.671082 
	C522.152954,781.792847 521.174927,783.303040 519.255249,783.171082 
	C517.410095,781.483337 518.088928,779.347229 518.084900,777.450378 
	C517.970886,723.970764 517.857422,670.491089 517.913574,617.011536 
	C517.918579,612.240356 516.592651,608.440796 513.873962,604.571716 
	C509.424744,598.239990 504.161407,592.401611 500.751862,585.353210 
	C502.985535,583.518311 504.054169,585.517151 505.732239,586.245239 
M541.961731,714.616699 
	C542.182739,720.098206 542.255798,725.591309 542.681274,731.056885 
	C542.929626,734.247253 545.331177,734.927368 548.151917,734.692383 
	C550.968689,734.457642 552.984924,733.419739 553.028015,730.208008 
	C553.111450,723.981323 552.291748,717.849731 549.718933,712.187012 
	C548.571289,709.660889 547.705811,705.298584 544.220947,705.956970 
	C540.324280,706.693115 542.586487,710.981140 541.961731,714.616699 
z"/>
<path fill="#000000" opacity="1.000000" stroke="none" 
	d="
M485.923706,454.097107 
	C478.485321,448.290497 471.328369,442.699005 463.603241,436.663574 
	C461.193024,441.915771 463.015930,447.142303 460.463409,451.187775 
	C458.420959,451.473816 457.559540,450.024200 456.553894,449.028625 
	C436.439575,429.114746 416.391510,409.133881 396.234924,389.263000 
	C393.132233,386.204254 393.998199,384.146362 396.715637,381.438324 
	C426.318512,351.937866 455.841125,322.356781 485.361938,292.774078 
	C489.713165,288.413727 493.936279,283.925629 498.230164,279.507843 
	C499.348755,278.356995 500.286285,276.910583 502.100494,276.689514 
	C503.919281,278.478424 503.203735,280.585236 503.204407,282.465820 
	C503.223633,336.260101 503.255829,390.054565 503.090820,443.848389 
	C503.073090,449.627625 504.396179,454.388794 507.994690,459.012146 
	C512.095764,464.281189 515.942810,469.865570 518.286377,476.439545 
	C506.226654,470.825104 496.363190,462.355103 485.923706,454.097107 
z"/>
<path fill="#000000" opacity="1.000000" stroke="none" 
	d="
M322.999939,536.703491 
	C355.482941,536.697876 387.467957,536.502197 419.447632,536.827393 
	C427.151245,536.905762 433.627808,535.377441 439.722290,530.518921 
	C444.707336,526.544800 450.080994,522.869202 456.354095,520.252686 
	C457.537170,523.268250 455.546844,524.783264 454.456512,526.376099 
	C445.890869,538.889221 436.380951,550.695251 427.070923,562.650757 
	C425.026764,565.275757 422.976532,567.905640 421.105408,570.653381 
	C418.485901,574.499939 419.271393,576.107605 423.983826,576.969543 
	C429.384705,577.957458 429.384705,577.957520 431.600708,579.689087 
	C431.699463,581.048157 430.685913,581.742676 429.876953,582.558716 
	C409.824982,602.785339 389.733795,622.973389 369.766174,643.282959 
	C367.022186,646.073914 365.071869,646.706604 362.067017,643.589111 
	C328.895142,609.174316 294.829071,575.645081 261.076324,541.805237 
	C259.957062,540.683044 258.347046,539.799255 258.468628,536.704529 
	C279.797974,536.704529 301.148956,536.704529 322.999939,536.703491 
M359.089050,582.487366 
	C365.114197,586.024536 374.982910,582.325317 377.195892,575.700195 
	C378.582458,571.549255 376.090118,568.141235 371.671997,568.667236 
	C368.399078,569.056885 365.146820,569.976196 362.001953,571.013245 
	C354.698395,573.421753 353.967804,575.956848 359.089050,582.487366 
z"/>
<path fill="#000000" opacity="1.000000" stroke="none" 
	d="
M543.212769,862.781494 
	C540.732300,867.788818 537.211060,871.206177 531.815002,870.792236 
	C526.443848,870.380310 523.371460,866.277771 521.574097,861.639771 
	C520.158447,857.986938 518.702576,854.197021 519.713989,850.002502 
	C520.528931,846.622925 518.507568,843.902954 516.944763,841.172485 
	C511.306061,831.320984 511.185730,831.237305 518.826233,822.923218 
	C532.021240,808.564819 546.672791,795.671265 560.435913,781.878906 
	C586.547729,755.711609 612.794678,729.679077 639.007202,703.612366 
	C641.603943,701.030029 644.352295,698.600403 647.026611,696.096008 
	C648.144043,695.049561 649.349609,693.813782 650.915344,695.047302 
	C654.756104,698.073120 658.707825,701.026062 661.521362,705.227417 
	C659.451721,706.922668 657.512085,706.531860 655.884338,706.035767 
	C650.351807,704.349854 645.908020,705.840637 641.722412,709.654968 
	C638.287415,712.785278 634.354553,715.363831 630.718140,718.281494 
	C629.344299,719.383850 627.537109,720.255310 627.464355,722.408386 
	C628.164307,724.083801 629.695068,724.310486 631.154907,724.602417 
	C651.383606,728.648438 671.619629,732.658447 691.842346,736.733948 
	C699.011536,738.178711 706.176086,739.664673 713.293274,741.342041 
	C718.145691,742.485718 718.503784,743.757812 715.436707,747.745300 
	C714.028748,749.575806 712.372009,751.097351 712.402161,753.789551 
	C712.427368,756.033691 710.388550,756.474670 708.498779,756.885620 
	C703.529602,757.966248 701.381348,761.880249 702.981384,766.880493 
	C703.640259,768.939514 704.377991,770.987549 705.268372,772.955261 
	C707.281372,777.404419 707.231995,781.525330 702.924011,784.478699 
	C698.787903,787.314148 694.330078,786.616272 690.184387,784.323914 
	C686.498352,782.285645 683.770630,779.025391 680.941040,776.000366 
	C676.582703,771.341064 671.826416,767.265991 668.985657,761.010681 
	C665.634277,753.630920 658.657532,748.947449 651.507141,745.137207 
	C647.558044,743.033020 643.506653,743.999512 640.320129,746.676453 
	C637.179260,749.314819 638.347046,753.127747 640.149170,755.839966 
	C643.348938,760.655640 643.380798,766.477905 646.016602,771.470520 
	C648.098816,775.414734 646.791443,779.728394 644.581177,783.399475 
	C641.239502,788.949646 635.075134,789.442993 630.100220,784.750366 
	C624.469299,779.438965 621.639709,772.486694 618.985352,765.450317 
	C618.753662,764.835876 618.842468,764.089050 618.568787,763.503601 
	C616.813477,759.747803 614.327942,756.012146 609.937012,756.360779 
	C605.156616,756.740356 605.413940,761.362305 605.169006,764.984802 
	C605.046021,766.803467 604.817871,768.783508 605.364624,770.452271 
	C609.463257,782.961487 609.732483,796.360046 614.355896,808.735657 
	C616.468506,814.390625 617.501160,820.247620 617.743958,826.282593 
	C617.959595,831.644531 619.029175,836.925781 621.025940,841.866882 
	C623.247070,847.363464 623.708374,853.136475 624.672363,858.845764 
	C625.073181,861.219910 624.766479,863.359802 623.255859,865.447327 
	C618.428406,872.118408 614.347351,872.192383 608.789124,866.149292 
	C601.302734,858.010010 597.018188,848.255615 593.419922,838.037537 
	C591.334167,832.114685 589.750061,826.054749 585.772583,820.812805 
	C583.552979,817.887573 583.139893,813.708130 582.982117,809.813416 
	C582.804077,805.419983 581.633118,801.277466 579.277954,797.524170 
	C577.078552,794.019043 573.852600,792.996887 570.224609,794.664062 
	C567.182617,796.061951 564.058472,797.126831 560.926147,798.237427 
	C557.793518,799.348145 555.656128,801.416626 554.408447,804.646240 
	C550.139771,815.696106 548.416931,827.407593 545.576904,838.813354 
	C544.129395,844.626953 545.943420,850.992737 544.179749,856.993103 
	C543.669617,858.728760 543.604431,860.595093 543.212769,862.781494 
z"/>
<path fill="#000000" opacity="1.000000" stroke="none" 
	d="
M449.217926,291.218811 
	C425.508362,314.893097 401.462189,337.727539 378.535461,361.687988 
	C373.511749,366.938232 373.292816,366.870972 368.015717,361.410645 
	C365.795502,359.113342 362.588867,357.576813 361.527924,353.873260 
	C365.001038,352.258698 368.262604,353.807373 371.434631,353.883453 
	C374.837769,353.965088 377.531097,353.127106 380.103699,350.949127 
	C385.528137,346.356720 391.106689,341.946320 396.779785,337.332916 
	C394.850891,334.589478 392.285736,334.947815 390.173676,334.513275 
	C377.623535,331.931274 365.062317,329.395355 352.467926,327.041168 
	C348.229919,326.249023 345.990692,324.371307 344.837189,319.912262 
	C342.750153,311.844513 338.775818,304.518463 334.488800,297.312164 
	C330.353821,290.361511 325.195374,283.953613 322.535645,276.150421 
	C321.349213,272.669708 320.219055,269.185150 319.960815,265.496002 
	C319.480042,258.628326 320.799652,258.619995 327.546570,259.378174 
	C341.428436,260.938171 348.975616,270.857605 358.054657,279.397522 
	C367.415710,288.202789 373.110870,299.527740 380.934235,309.346161 
	C382.593170,311.428162 383.931824,313.802673 386.168945,315.337799 
	C389.128632,317.368744 391.601593,316.494537 391.855591,312.932800 
	C392.356750,305.906342 391.590424,299.345764 387.139099,293.083008 
	C382.553162,286.630798 379.438232,279.045135 378.017761,271.148376 
	C376.885132,264.851715 381.589844,261.289581 387.932037,262.502533 
	C397.717651,264.374084 402.954712,270.999939 406.722076,279.450287 
	C408.754181,284.008392 410.974518,288.483093 413.139496,292.981232 
	C414.696411,296.216125 417.415833,298.274750 420.512726,300.439728 
	C422.609650,296.910553 424.876709,293.969147 428.462463,292.183502 
	C430.353668,291.241730 430.080811,288.974213 429.787903,287.187195 
	C428.394562,278.686462 428.172913,269.911774 423.633484,262.139435 
	C422.667084,260.484802 422.307434,258.330902 422.154541,256.369110 
	C420.979675,241.293411 415.785706,227.124954 412.306824,212.576660 
	C410.895203,206.673370 409.579865,200.928146 411.331207,194.896942 
	C412.820923,189.766815 415.489532,188.219360 420.274414,190.536530 
	C426.564301,193.582520 431.463318,197.746552 433.611633,205.106216 
	C436.263550,214.191055 439.103699,223.469467 443.632324,231.689148 
	C448.303284,240.167191 450.704102,249.109940 453.107117,258.204102 
	C453.809326,260.861694 455.154938,262.630096 457.815369,263.489349 
	C459.226257,263.945038 461.116455,264.390594 461.772644,265.463226 
	C465.284821,271.204559 467.872375,267.644592 470.591614,264.831085 
	C473.848541,261.461212 474.785767,257.411407 475.612122,252.767029 
	C477.752960,240.735306 477.507294,228.544449 479.105072,216.509644 
	C479.415680,214.170181 479.892639,211.526276 482.464844,210.836624 
	C485.089325,210.132935 486.265411,212.657425 487.222046,214.463425 
	C491.171356,221.919220 494.014496,229.986755 500.261841,236.114273 
	C501.868042,237.689667 500.304260,239.650330 499.075897,240.974396 
	C495.451996,244.880753 491.880402,248.866745 487.953857,252.455643 
	C474.540771,264.715332 462.041992,277.876953 449.217926,291.218811 
z"/>
<path fill="#000000" opacity="1.000000" stroke="none" 
	d="
M559.585266,301.396118 
	C550.573608,290.013062 542.611694,278.310944 534.484558,266.727600 
	C532.125549,263.365387 531.052734,260.581146 535.589417,257.726227 
	C538.520691,255.881470 540.117188,252.382904 541.056458,248.977310 
	C543.132080,241.451935 546.024658,234.141846 547.049377,226.330551 
	C547.263550,224.697495 547.696472,223.028366 548.377319,221.534805 
	C549.781433,218.454468 550.191528,213.752472 554.271912,213.656693 
	C558.316223,213.561737 560.755188,217.533066 562.485718,220.845978 
	C564.072693,223.883987 564.987915,227.403168 565.558777,230.817383 
	C567.294312,241.197235 568.554626,252.039459 566.385498,262.074951 
	C564.268494,271.869202 568.000061,279.996094 569.278137,288.841644 
	C569.604797,291.102692 570.829468,291.164459 573.136292,291.186157 
	C582.659912,291.275787 584.971130,285.064636 586.105164,277.512909 
	C587.449585,268.560272 593.446655,262.872681 600.065247,257.644073 
	C601.425659,256.569427 602.919739,256.142731 604.667725,257.210907 
	C609.440369,260.127411 613.115295,267.866302 612.289978,273.401154 
	C611.479431,278.837128 610.747070,284.287109 608.726257,289.448761 
	C607.986633,291.337769 608.059387,292.962921 609.711914,294.406860 
	C611.424683,295.903442 613.053894,295.308350 614.803894,294.546600 
	C621.919739,291.449005 624.577698,284.371521 628.789917,278.731689 
	C630.546082,276.380310 631.630066,273.459991 632.688843,270.672729 
	C633.837891,267.647858 635.296204,265.188599 638.078674,263.181610 
	C641.523926,260.696594 642.559021,256.304199 644.389587,252.630005 
	C649.562256,242.247879 654.320984,231.656082 659.637878,221.350723 
	C662.413269,215.971268 667.980774,212.987961 672.210327,208.849960 
	C673.781311,207.312958 675.914124,207.948929 677.642273,209.441040 
	C683.321411,214.344391 684.876709,223.213486 681.483215,229.970627 
	C675.538025,241.808746 669.505615,253.615677 664.029663,265.671844 
	C660.950012,272.452301 659.020203,279.746857 656.374573,286.734894 
	C653.336304,294.760376 649.124023,302.405670 649.416260,311.401093 
	C649.510620,314.305328 647.352295,315.203735 644.732788,315.479004 
	C636.752075,316.317657 628.733215,316.143250 620.773499,315.779602 
	C605.950623,315.102386 591.134155,315.504700 576.318298,315.463928 
	C571.879639,315.451721 568.709778,314.443695 566.359924,310.487976 
	C564.500488,307.357758 562.011719,304.601379 559.585266,301.396118 
z"/>
<path fill="#000000" opacity="1.000000" stroke="none" 
	d="
M532.666077,553.674072 
	C531.273254,554.645203 529.985962,555.233093 529.117432,556.198059 
	C521.685608,564.454468 512.845032,563.969604 502.759583,562.116821 
	C494.362457,560.574097 489.738037,556.576965 485.146637,549.719299 
	C479.793915,541.724609 478.769562,534.694031 479.998566,525.018860 
	C481.855530,510.399963 492.317596,504.790802 501.873383,497.495483 
	C502.475922,497.035492 503.476593,496.782562 504.230896,496.884735 
	C511.639160,497.888489 519.038391,498.962433 526.429504,500.086334 
	C527.610840,500.265961 528.480591,501.121277 529.185486,502.106964 
	C533.836365,508.610352 538.497498,515.106445 543.161194,521.600647 
	C544.096924,522.903687 544.276794,524.264099 543.909302,525.850281 
	C542.258179,532.976440 540.682983,540.120300 539.106750,547.263611 
	C538.361328,550.641663 535.262146,551.646484 532.666077,553.674072 
z"/>
<path fill="#000000" opacity="1.000000" stroke="none" 
	d="
M722.030762,548.626221 
	C725.961914,548.786743 729.462219,548.098938 733.740356,549.373291 
	C728.735535,555.246033 722.489014,558.184937 716.348145,561.372986 
	C712.218262,553.676575 714.395996,548.730774 722.030762,548.626221 
z"/>
<path fill="#000000" opacity="1.000000" stroke="none" 
	d="
M532.962646,311.010559 
	C537.014465,316.350677 540.965515,321.354767 543.936829,327.424927 
	C539.827515,328.827362 536.228027,328.220459 532.671631,328.085114 
	C531.560425,328.042816 530.739990,327.241943 530.718506,326.177399 
	C530.618347,321.228302 530.264099,316.264038 531.046936,311.339905 
	C531.179016,310.509705 532.005188,310.625336 532.962646,311.010559 
z"/>
<path fill="#000000" opacity="1.000000" stroke="none" 
	d="
M239.419922,724.554932 
	C237.318481,729.233276 234.085907,732.083923 229.275330,732.806152 
	C227.604858,733.056946 225.446686,734.180542 224.436935,731.874512 
	C223.545059,729.837891 223.529388,727.197876 225.191025,725.803345 
	C228.499588,723.026672 232.642853,721.640320 236.944183,721.227844 
	C238.574585,721.071594 239.607315,722.380005 239.419922,724.554932 
z"/>
<path fill="#000000" opacity="1.000000" stroke="none" 
	d="
M295.133606,510.079285 
	C292.606262,509.868256 290.385101,510.623413 287.774567,508.671814 
	C292.828247,503.976929 298.546997,500.823212 304.317780,497.070526 
	C306.108276,501.012329 305.286224,504.493195 305.333160,507.850250 
	C305.360291,509.788422 303.574127,510.017212 302.043884,510.061371 
	C299.895050,510.123352 297.743042,510.077423 295.133606,510.079285 
z"/>
<path fill="#000000" opacity="1.000000" stroke="none" 
	d="
M486.883606,746.208008 
	C484.120514,741.379639 480.526520,737.455505 478.542206,732.760071 
	C479.068451,732.264099 479.172699,732.078552 479.311371,732.047607 
	C489.609528,729.749756 491.220642,730.975525 491.205780,741.277710 
	C491.202271,743.703735 491.714996,746.212158 490.568848,748.535095 
	C488.487885,749.318176 487.999969,747.556030 486.883606,746.208008 
z"/>
<path fill="#000000" opacity="1.000000" stroke="none" 
	d="
M674.541931,311.505859 
	C672.718994,309.081024 674.256836,308.130890 676.097534,307.539154 
	C677.136963,307.204987 678.220886,307.781555 678.188049,308.945312 
	C678.130554,310.977539 676.691772,311.653381 674.541931,311.505859 
z"/>
</svg>